<svg
  xmlns="http://www.w3.org/2000/svg"
  viewBox="0 0 16 16"
  fill="black"
 
>
  <path
    fillRule="evenodd"
    clipRule="evenodd"
    d="M0 3.72C0 3.05.52 2.5 1.17 2.5h13.66c.65 0 1.17.55 1.17 1.22v8.56a1.2 1.2 0 0 1-1.17 1.22H1.17A1.2 1.2 0 0 1 0 12.28zm2.64.9a.36.36 0 0 0-.3-.12.39.39 0 0 0-.31.29c-.05.15 0 .33.1.43l2.75 2.83-2.74 2.72c-.16.13-.19.43-.05.6.13.17.4.17.54 0l2.8-2.76 1.55 1.6c.57.6 1.45.6 2.03 0l1.57-1.6 2.79 2.77c.14.16.4.16.54 0 .14-.18.11-.48-.05-.61l-2.74-2.72 2.74-2.83a.46.46 0 0 0 .02-.58.35.35 0 0 0-.52-.02l-4.85 5a.7.7 0 0 1-1.03 0z"
  />
</svg>
