<svg
  xmlns="http://www.w3.org/2000/svg"
  viewBox="0 0 16 16"
  className="w-5 h-5 text-blue-500"  {/* Customize color using text-* */}
>
  <path
    d="M5.05 5.4v-.28c0-.83.3-1.62.86-2.2.55-.6 1.3-.92 2.08-.92h.1c1.63 0 2.94 1.4 2.94 3.12V6.3c-.38-.15-.84-.2-1.26-.18v-1c0-.98-.75-1.78-1.67-1.78h-.11c-.93 0-1.68.8-1.68 1.78v.27c0 .34-.24.63-.56.66h-.01a.6.6 0 0 1-.49-.16.68.68 0 0 1-.2-.5z"
  />
  <path
    d="M12.5 12.88V8.1a.69.69 0 0 0-.53-.69l-.06-.01a19.8 19.8 0 0 0-7.82 0l-.05.01a.69.69 0 0 0-.54.69v4.78c0 .33.22.62.54.69l.4.08a18.1 18.1 0 0 0 7.12 0l.4-.08a.69.69 0 0 0 .54-.7z"
  />
</svg>
